<svg id="Capa_1" data-name="Capa 1" xmlns="http://www.w3.org/2000/svg" viewBox="0 0 2277 2275"><defs><style>.cls-1{fill:#fff;}</style></defs><title>Mesa de trabajo 1</title><circle class="cls-1" cx="1138.5" cy="1136" r="1136"/><path d="M1103.55,95.46c-55.7,2.8-87.3,5.9-130.5,13-162.3,26.6-314.4,91.7-446.8,191.1-39.2,29.4-68.4,54.6-103.6,89.3-55.3,54.5-94.9,102.2-137.1,165.5-95.3,142.6-153.2,304.3-170.4,476.5-3.9,38.7-4.6,54.6-4.6,105.5,0,50.5.6,64.4,4.5,104.1,33.4,341,233.1,645.1,532.2,810.2,258.6,142.8,570.1,165.6,847.8,61.9,116.3-43.4,222.5-107.4,320-192.6,20-17.4,72.7-70.1,90.1-90.1,132.1-151.1,215.9-327.7,247.8-522,10.2-62,13.5-104.2,13.5-171.5.1-45.9-.6-62.7-4-99a1043.4,1043.4,0,0,0-206.7-533.5c-30.6-40.3-56.9-70.4-95.1-108.5-31.3-31.3-54.1-51.8-84.9-76.5A1017.93,1017.93,0,0,0,1266,103c-17.7-2.3-42.6-4.6-64.5-6.1C1186.35,95.76,1116.35,94.76,1103.55,95.46Zm12.8,160.9c28.8,4.3,69.7,15.8,110.7,31,28.5,10.6,32,13.3,49.4,38.1L1288,342l-8.2,3.7c-46.2,20.2-80.5,43.7-113.8,77.8-15,15.4-22.8,24.8-34.4,41.6-7.8,11.4-10.6,17.3-13.5,28.8-5,20.2-6.3,31.4-7.1,62.5-.5,16.5-.9,30.1-.9,30.2-1.4,4.2-18.1-34.9-18.1-42.2,0-.8-.2-1.5-.4-1.5s-8.4-1.8-18.2-4l-17.9-4.1-14.6,4.2c-8,2.2-15.1,4.4-15.7,4.8s-1.6,6.2-2.2,13.1-1.6,14.7-2.2,17.5c-1.3,6-10,25.4-15.5,34.8l-4,6.9-.6-9.4c-.4-5.1-1-21.2-1.3-35.7l-.7-26.5-2.3,2.9-2.2,2.8-.6-3.4c-.3-1.9-1-7.7-1.6-12.9-4.9-43.8-20.3-80.7-46.2-109.9-11-12.5-21.6-21.8-49.3-43-26.3-20.2-32.3-25.8-36.5-34-7.1-14.1-4.1-23.8,10.8-35.1,20.1-15.1,67.9-32.3,119.5-42.9,23.8-4.9,34-6.5,68.2-10.6C1088.85,254.66,1102,254.16,1116.35,256.36Zm-340.8,122.5c18.7,1.5,21.4,2.6,31.6,13.1,7.5,7.7,9.9,9.5,18.6,13.7,9.3,4.5,21.6,8.9,40,14.2,11.8,3.4,15.3,7.8,13.8,17.6-.8,5.3-2.4,5.6-8.1,1.7a74.29,74.29,0,0,0-22.1-10c-17.5-4.2-60.8.1-91.4,9.2-32.4,9.7-63.1,26.7-82,45.5-12.8,12.7-14.4,16.1-14.3,30,0,9.2.5,12,3.8,22.5,3.3,10.7,11.3,31.5,17.7,46.2,1.3,2.9,2,5.5,1.6,5.9s-3.2,1.3-6.4,2.1c-9.8,2.4-28.9,2.7-59.3.8-15.9-.9-31.8-1.4-36-1.1-22.7,2.1-59.6,14.8-107,37-14.4,6.7-60.1,30.4-80.7,41.8-2.3,1.2-4.4,2-4.8,1.7s2.4-7.1,6.1-15,11.8-25.8,18.1-39.8c19.5-43.4,30.9-60.8,54.9-84.1,10.9-10.6,23.3-20.2,56.9-44.3,54.5-39.2,111.4-73.2,150-89.8,15.9-6.8,45.1-16.6,54.5-18.4C739.95,377.76,758.95,377.56,775.55,378.86Zm615.5,26.5c41.4,5.1,74.9,13.9,99.7,26.1,8.6,4.2,12.9,7.1,18.6,12.4,6.8,6.4,11.8,13.2,10.5,14.5-.3.3-9.9-2.6-21.4-6.6-90.2-30.7-96-32.1-125.9-32.1-32.9,0-54.7,7.5-72.1,24.8-7,6.8-9,9.6-13.3,18.5-6,12.4-9.5,25.1-11,41-1.4,14.4-1.4,24.3,0,36.7,1.5,14.2,3,20.5,13,56.7,5,18,8.8,32.9,8.5,33.2-.8.9-10.7-3-39.6-15.5-39.7-17.1-55.6-23.4-76.2-30.2-22.1-7.3-23.2-8.1-24.3-18.5-1.4-12.8,1.9-36.1,7.1-50.7,9-25,27.8-51.1,50.1-69.8,28.7-24,61-36.8,107.3-42.4C1329.85,402.56,1379.15,403.86,1391,405.36ZM1063.35,588c5.3,1.4,9.5,5.5,14.8,14.5,9.5,16,17.1,38.4,13.1,38.4-.4,0-4-3.3-8.2-7.4-11-10.9-20.6-15-38.3-16.3-8.6-.6-8.8-.6-11.7,2.2-1.8,1.7-3.8,5.4-5.1,9.4-2.9,8.8-3.9,9.6-3.3,2.5,1.4-15.9,6.6-31.9,12.7-38.8C1042.85,586.16,1050.95,584.76,1063.35,588Zm-5.8,58.4c22.8,11,48.6,30.3,65.2,48.7,9.5,10.6,11.8,14.3,20.3,32.8,28.4,61.6,78.3,129.1,152.4,206,46.1,47.8,72.8,71.4,156.6,138,36,28.6,62.8,53.2,68.1,62.5,2.4,4.2,2.9,6.1,2.9,11.9v6.9l5.8,5.1c11.7,10.2,35,34.5,42.8,44.6,17,21.9,26,36.8,56.9,94,19.2,35.5,29.5,53,31.3,53,1.1,0,2.4-8.2,12.3-74,5.6-37.8,7.2-50.8,7.6-63.6.7-19,.1-24.9-7.2-68.9-8.4-50.3-10.2-59.2-19.1-91.3-2.5-8.9-4.4-17.2-4.2-18.3.8-5.2,23.1,29.4,33.8,52.4,3,6.4,5.7,11.7,6,11.7,1.4,0,4.2-7.8,6-16.4a121.31,121.31,0,0,1,3.3-13.1l1.5-4,1.2,3c1.6,3.9-.1,20.9-3.6,37.8-3.5,16.7-4,24.1-2,31.1.9,3.1,7.8,18.5,15.2,34.3,15.4,32.5,26.4,56.7,30.3,66.3l2.6,6.5.3,312.9.2,312.9-4-.6a30.69,30.69,0,0,1-15.8-7.8c-5.6-5.5-4.1-13.4,3.6-19.6,2.2-1.8,4.2-4.3,4.5-5.9s-3.3-40.5-7.9-86.8-12.9-129.7-18.4-185.5-10.2-101.7-10.5-102c-.5-.4-41-9-43.1-9.1s-10.2,23.5-14.9,43.5c-12.6,53.3-16.3,66-24.5,83.2-11,23.2-28.5,44-50.6,60.4-16,11.8-39.9,24.9-45.5,24.9-4.2,0-5.6-1-18.3-11.9-11.4-9.9-18.3-17.5-28.6-32-4-5.6-8-10.6-9-11.1s-8.6-1-16.9-1c-14.8,0-15,0-18.2,2.7-4.7,4-13.8,16.6-18.6,25.8-7.6,14.8-12.8,32.9-15.2,53.1-1.6,13.1-3.1,52-3.1,80.6,0,13.8-.4,24.9-.9,25.2s-6.5-4-13.3-9.7c-41-34.2-78.3-59.7-122.3-83.5-35.6-19.2-64.1-30.2-89.9-34.7-20-3.4-30.7-1.6-57,9.6-23.8,10.1-52.5,24.5-104.6,52.3-22.3,11.9-42.3,22.1-44.5,22.7-3,.8-8.1.7-21.4-.6-21.8-2.2-31.8-1.7-39.7,1.9-3.1,1.4-5.8,2.5-6,2.3s-.4-22.4-.5-49.4l-.2-49.2,2.7-5.6c4.2-8.6,48.1-74.1,50.2-74.9,3.3-1.2,40.4-6.5,57.4-8,9.1-.9,36.5-3.2,61-5.1,62.9-5,78.7-6.7,107-12.1,44.8-8.4,68.9-18.6,97.1-41.2,30.1-24,60.7-62.4,72.5-90.8,5.3-12.9,4.7-16.1-4.7-26-10.2-10.5-29.1-22.3-43.4-26.8-4.4-1.5-14.7-6-23-10.1-11.4-5.8-18.1-8.4-28-11.1-35.5-9.5-57.1-12-116.5-13.4-21.7-.6-51.6-1.7-66.5-2.5s-40.7-1.9-57.5-2.5c-40.5-1.3-50.9-3.1-57.6-10.1l-2.9-3-.3-20.5-.3-20.4H1113l10.7-3.6c12.6-4.3,22.7-4.9,32.7-2,6.5,1.9,39.4,18.1,55.1,27.1,18.6,10.6,74.9,48.9,87.5,59.4,3,2.5,13.2,11.8,22.5,20.6s18.6,17,20.5,18.2,11.4,5.5,21.1,9.7c22.7,9.8,27.7,10,29.3,1.3,1.6-8.4-2.9-17-21.1-40.4-45.3-58.5-119.5-134.8-170.8-176-15-12.1-40.6-29.4-51.5-34.8-23.6-11.8-36.6-13.2-91.5-9.5-45.8,3.1-63.4,5.7-85.5,12.6-23.6,7.4-39.7,16.8-55,32.3-14.2,14.2-22.5,27.7-47.2,76.6-15.2,30.1-31,57.5-43.7,75.5-8.1,11.6-28.2,38-28.9,38-.4,0-2.5-4-4.7-8.8s-11.1-23.8-19.8-42.2c-30.5-64.3-37.8-82.5-43.3-108.2-3.5-16.8-4.4-43.9-2-64.8,4.9-42.4,17.3-62.4,63.6-102,20.1-17.2,44.9-41.8,59.7-59,6.9-8,12.9-14.6,13.3-14.8s1.3,5,2,11.5c1.5,14.1,1.5,143.6,0,190.3-1.2,37.1-1.2,45.3-.1,44.6.5-.3,2.8-3.8,5.1-7.8s11.7-18.9,20.7-33.1c20.8-32.7,32.5-53.1,39.9-69.6l5.8-13,4.8-.6a44,44,0,0,1,9.6-.1c2.6.3,21.4,2.2,41.7,4.2,32.6,3.3,37.9,3.6,44.8,2.6,10.6-1.5,19.5-5.5,32.9-14.8,27.5-19,32.2-22,47.8-30.9,9.1-5.1,17.4-9.6,18.6-9.9,1.7-.5,2.7.2,5,3.5,2.7,3.9,2.9,4.9,2.9,13.3,0,5-.3,13.1-.8,18.1l-.7,9,9-17.8c5-9.7,9.4-17.7,9.8-17.7,1.4,0,12.2,6.8,16.1,10.1,7.1,6.1,13.3,14.6,18.8,25.7,4.7,9.5,5.8,11,7,10,5.4-4.5,18.1-28.7,23.2-44.3,5.9-18.4,8.3-33.1,10.1-62.8.6-9.8,1.8-21.5,2.6-25.9,3-15.6,4.3-29.9,3.1-32.5-1-2.2-1.3-1.8-4.4,5.9-10.8,27-25.4,48.8-42.7,64.1l-8.1,7.1-.3-5.9c-.5-8.8,1.8-13.6,10.9-23.1,11.7-12.2,12.6-18,5.2-32.1-5.9-11.2-9.4-16.5-26.8-39.8-26.1-34.9-60.1-76.1-73.8-89.4-5.4-5.3-5.7-5.4-7.6-3.7a37,37,0,0,0-4.9,8.1c-4.7,9.8-5,9.7-10.5-3.8-5.9-14.7-10.6-21.5-45.5-66.5-10-12.9-17.1-21.2-18.2-21.2-3.2,0-13.5,6-20.2,11.7-3.6,3.2-11.9,10.7-18.2,16.7s-11.9,10.6-12.3,10.2-.8-4.3-1-8.9c-.4-7.3,0-9.3,3-17.7,5.7-16.3,6.4-17.4,49.7-76.4C1047.25,635.76,1042.65,639.16,1057.55,646.36Zm713.4,116.9c10.9,5.6,14.4,10.5,14.3,20.5-.4,30.1-28.2,95-60.5,141.1-31.9,45.6-66,75.1-100,86.4-20.7,6.9-43.4,7.9-71.7,3.2-20.2-3.4-45.7-8.5-64.9-13.2-7.9-1.8-16.7-3.4-19.6-3.4-9.9,0-25.5-2.1-33.8-4.5-17.4-5-30.2-12.6-65.7-39-41.8-31.2-48.8-37.3-60.3-52.6-6-8-7.2-12.3-4.1-15.3,4.2-4.2,19.1.1,39.4,11.5a494.59,494.59,0,0,0,47.8,24c17.1,7.2,24.9,12.6,37.6,25.7,19.1,19.6,30.8,25.9,58.1,31,33.7,6.4,76.2,7.5,100.1,2.7,31.2-6.4,62.9-25.3,90.6-54.3,35.9-37.5,69.4-98.8,83.9-153.4,1.9-7.1,3.5-12.8,3.7-12.8S1768.25,762,1770.95,763.26Zm-54.2,212.8c1.3,2.5,16.4,38.8,33.7,80.5s43.8,105.5,58.9,141.8,27.7,67,28.1,68.1a3.54,3.54,0,0,1-.9,3.7,6.85,6.85,0,0,0-1.5,2.1c0,.3,8,12.9,17.8,27.9,20.7,31.6,30,46.8,40.5,66.2,11.9,22,26.8,56.9,25,58.5-.4.4-5.9,2.5-12,4.6s-11.3,4.2-11.3,4.5c0,1.3,12.2,14.9,13.5,14.9,2.9,0,6.4,4.9,12.2,17.5,6.9,14.7,10.5,25,12.9,36.5,2,9.8,1.3,14.6-5.7,42.5-11.1,44.1-18.9,62.7-55.1,130.8-8.4,15.6-11.6,20.9-13.3,21.3-6,1.5-23.4-4-34-10.7-3.3-2.1-6.3-3.5-6.7-3.1s-1.1,2.7-1.7,5.1c-.8,3.5-.4,7.4,1.9,20,1.5,8.6,3.1,18.4,3.4,21.8l.7,6.3H1774v-77.8l20.9-7c21.6-7.3,34.9-12.6,48.6-19.4,8.7-4.4,12-6.9,14.1-11,1.7-3.4,10.6-38.8,13-52.3,2.3-12.7,2.3-35.1.1-57-.9-8.8-2.6-26.8-3.7-40-3.1-36.7-4.3-42.3-14-63.5-4.6-10.1-5.9-14-4.5-14,4,0,19.4,12.1,33,25.9,5.5,5.5,10.5,10.1,11.1,10.1,2,0,6.3-5.9,7.5-10.3,1.5-5.6.6-13.5-2.3-19.7l-2.3-5.1-5.9,5c-8.7,7.3-9.6,6-3.9-5.5,4.8-9.8,5-16.5.7-24.4-3.6-6.7-10.3-11.7-30.4-22.9-8.3-4.5-15-8.8-15-9.4,0-2.4-4-34.7-6.6-53.1l-2.6-18.8-55-132.2c-69.8-167.7-67-160.7-65.6-162.3C1712.95,970.06,1714.35,971.06,1716.75,976.06Z"/></svg>